<?xml version="1.0" encoding="UTF-8" standalone="no"?>
<!-- Created with Inkscape (http://www.inkscape.org/) -->

<svg
   width="1109.066"
   height="1109.066"
   viewBox="0 0 293.44038 293.44039"
   version="1.1"
   id="svg1"
   sodipodi:docname="testmap_v1.svg"
   inkscape:version="1.3.2 (091e20e, 2023-11-25)"
   xmlns:inkscape="http://www.inkscape.org/namespaces/inkscape"
   xmlns:sodipodi="http://sodipodi.sourceforge.net/DTD/sodipodi-0.dtd"
   xmlns="http://www.w3.org/2000/svg"
   xmlns:svg="http://www.w3.org/2000/svg">
  <sodipodi:namedview
     id="namedview1"
     pagecolor="#ffffff"
     bordercolor="#000000"
     borderopacity="0.25"
     inkscape:showpageshadow="2"
     inkscape:pageopacity="0.0"
     inkscape:pagecheckerboard="0"
     inkscape:deskcolor="#d1d1d1"
     inkscape:document-units="mm"
     inkscape:zoom="0.43640314"
     inkscape:cx="427.35714"
     inkscape:cy="562.55324"
     inkscape:window-width="1280"
     inkscape:window-height="800"
     inkscape:window-x="0"
     inkscape:window-y="0"
     inkscape:window-maximized="0"
     inkscape:current-layer="layer1" />
  <defs
     id="defs1" />
  <g
     inkscape:label="Layer 1"
     inkscape:groupmode="layer"
     id="layer1">
    <g
       id="g4"
       transform="translate(30.920343,7.2753478)">
      <rect
         style="fill:#27b2ff;fill-opacity:1;stroke-width:0.264583"
         id="rect1"
         width="293.44046"
         height="293.44046"
         x="-30.920378"
         y="-7.275383" />
      <path
         style="fill:#be701b;fill-opacity:1;stroke-width:0.264583"
         d="m 160.05843,130.35061 c 0,0 -4.85026,-60.62819 21.21986,-60.021908 26.07012,0.606282 54.56537,-7.881665 56.9905,4.243974 2.42512,12.125637 -5.45654,21.219866 -22.43243,21.826149 -16.9759,0.606282 -36.37691,7.275385 -36.37691,17.582175 0,10.30679 -12.12564,28.49525 -19.40102,16.36961 z"
         id="path1" />
      <path
         style="fill:#be701b;fill-opacity:1;stroke-width:0.264583"
         d="m 166.72752,198.86046 c 0,0 14.55077,-15.15704 24.25128,-8.48794 9.70051,6.6691 51.53396,56.38422 30.31409,56.38422 -21.21986,0 -43.65229,26.07012 -50.92768,16.36961 -7.27538,-9.70051 29.70782,-16.9759 22.43244,-32.73923 -7.27539,-15.76333 -27.88897,-14.55076 -26.07013,-31.52666 z"
         id="path2" />
      <path
         style="fill:#be701b;fill-opacity:1;stroke-width:0.264583"
         d="m 1.8188457,143.68881 c 0,0 49.7151153,-25.46384 67.9035743,21.21987 18.188458,46.6837 -18.794741,36.9832 0.606282,67.90357 19.40102,30.92038 -67.9035744,58.80935 -62.4470371,7.27539 5.4565371,-51.53397 -35.1643499,-78.81665 -6.0628192,-96.39883 z"
         id="path3" />
      <path
         style="fill:#be701b;fill-opacity:1;stroke-width:0.264583"
         d="m 39.408325,41.22717 c 21.219867,-13.338202 87.304595,-32.1329417 87.304595,1.818845 0,33.951786 -22.43243,1.212564 -37.58948,27.888967 C 73.966393,97.611388 4.2439756,54.565371 39.408325,41.22717 Z"
         id="path4" />
    </g>
  </g>
</svg>
